<svg xmlns="http://www.w3.org/2000/svg" viewBox="0 0 907.14 199.25"><defs><style>.a{fill:#51ba65;}.b{fill:#019966;}.c{fill:#282d2d;}</style></defs><title>CEBroker-Next-Logo</title><path class="a" d="M112.65,78.35a3.67,3.67,0,0,0,5.19,0c3.86-3.86,6.5-6.63,8.83-9.07,1.8-1.89,3.41-3.58,5.26-5.43a3.67,3.67,0,0,0-.51-5.62C114.54,46.58,97.47,13.34,92.64,3.42a6.07,6.07,0,0,0-10.31-1C71.58,16.75,34,65,1.76,84.74a3.67,3.67,0,0,0-.68,5.73c6.69,6.69,20.71,24.27,20.85,24.44a3.67,3.67,0,0,0,2.85,1.38h0a3.67,3.67,0,0,0,2.84-1.35L86.7,42.59C90.82,50.35,99.71,65.41,112.65,78.35Z"/><path class="b" d="M154.68,84.34A3.67,3.67,0,0,0,151.83,83,3.73,3.73,0,0,0,149,84.3L89.89,156.66c-4.12-7.76-13-22.82-25.94-35.75a3.67,3.67,0,0,0-5.19,0c-3.88,3.87-6.52,6.65-8.85,9.1-1.79,1.88-3.4,3.57-5.24,5.41a3.67,3.67,0,0,0,.51,5.62c16.88,11.64,33.95,44.89,38.78,54.8a6,6,0,0,0,4.89,3.39l.59,0a6,6,0,0,0,4.84-2.43c10.74-14.32,48.3-62.58,80.57-82.31a3.67,3.67,0,0,0,.68-5.73C168.83,102.09,154.82,84.51,154.68,84.34Z"/><path class="c" d="M501.92,81.47A37.6,37.6,0,0,0,489.34,73a38.32,38.32,0,0,0-14.57-2.88c-6.82,0-12.62,1.55-17.24,4.61a42.43,42.43,0,0,0-9.74,8.89v-41H427V156.18h18.1a2.73,2.73,0,0,0,2.73-2.73v-8.33a45.84,45.84,0,0,0,9.59,8.24c4.62,3,10.47,4.53,17.39,4.53A38.89,38.89,0,0,0,489.41,155a37.4,37.4,0,0,0,12.66-8.49,41.34,41.34,0,0,0,8.8-13.74,49.92,49.92,0,0,0,3.27-18.63v-.31a48.83,48.83,0,0,0-3.35-18.63A42.39,42.39,0,0,0,501.92,81.47ZM493,114.15a29.88,29.88,0,0,1-1.81,10.66,23.58,23.58,0,0,1-4.87,8,22.06,22.06,0,0,1-7.18,5,22.54,22.54,0,0,1-17.58,0,22.11,22.11,0,0,1-7.33-5.09,24.76,24.76,0,0,1-5-8,28.29,28.29,0,0,1-1.88-10.49v-.31a27.67,27.67,0,0,1,1.88-10.41,25.9,25.9,0,0,1,5-8.06,21.59,21.59,0,0,1,7.32-5.16,22.27,22.27,0,0,1,8.83-1.8,21.56,21.56,0,0,1,15.92,6.87,24.53,24.53,0,0,1,4.88,8A29.41,29.41,0,0,1,493,113.84Z"/><path class="c" d="M558.51,75.61A36.1,36.1,0,0,0,549,87.08V74.54a2.73,2.73,0,0,0-2.73-2.73H528.16v84.36H549V123.83a44.79,44.79,0,0,1,2-14.06,26.77,26.77,0,0,1,5.57-9.8,23,23,0,0,1,8.54-5.84,30,30,0,0,1,11-2h2.06V70.29l-.92,0C569.77,69.92,563.46,71.73,558.51,75.61Z"/><path class="c" d="M660.47,82.95a43.85,43.85,0,0,0-14.21-9.42,46.37,46.37,0,0,0-17.94-3.43,45.46,45.46,0,0,0-17.94,3.51,44,44,0,0,0-23.61,23.46,43,43,0,0,0-3.44,17.09v.31a43.47,43.47,0,0,0,3.35,16.92,42.44,42.44,0,0,0,9.35,13.9,44.43,44.43,0,0,0,14.2,9.34,47.89,47.89,0,0,0,35.8-.08,43.79,43.79,0,0,0,23.69-23.46,42.58,42.58,0,0,0,3.44-16.93v-.31a43.17,43.17,0,0,0-12.69-30.89Zm-8.13,31.52a28.66,28.66,0,0,1-1.66,9.74,23.79,23.79,0,0,1-4.8,8,23.3,23.3,0,0,1-7.57,5.47,23.84,23.84,0,0,1-10,2,23.08,23.08,0,0,1-9.67-2,23.61,23.61,0,0,1-7.65-5.55,25.91,25.91,0,0,1-5-8.2,27,27,0,0,1-1.81-9.8v-.31a29.11,29.11,0,0,1,1.66-9.9A23,23,0,0,1,610.61,96a23.89,23.89,0,0,1,7.58-5.4,24.9,24.9,0,0,1,19.65,0,24.29,24.29,0,0,1,7.66,5.48,25.1,25.1,0,0,1,5,8.12,27.49,27.49,0,0,1,1.81,10Z"/><path class="c" d="M906.22,70.25c-7.5-.33-13.8,1.48-18.75,5.36a36.07,36.07,0,0,0-9.52,11.47V74.54a2.73,2.73,0,0,0-2.73-2.73h-18.1v84.36h20.82V123.83a44.79,44.79,0,0,1,2-14.06,26.77,26.77,0,0,1,5.57-9.8A23,23,0,0,1,894,94.13a30,30,0,0,1,11-2h2.06V70.29Z"/><path class="c" d="M387.77,83.72a36.66,36.66,0,0,0-12.66-9.94,40.31,40.31,0,0,0-17.67-3.69,39.73,39.73,0,0,0-16.64,3.44,40.5,40.5,0,0,0-13,9.44,43.07,43.07,0,0,0-8.55,14,47.8,47.8,0,0,0-3,17v.31a46.06,46.06,0,0,0,3.35,17.78,40.84,40.84,0,0,0,22.93,22.77,45.14,45.14,0,0,0,17,3.19c7.72,0,14.46-1.45,20-4.32,3.13-1.61,8.11-5.68,10.83-8a2.73,2.73,0,0,0,.41-3.72l-8.68-11.53-.64.62a38.78,38.78,0,0,1-9.9,7.16,26.83,26.83,0,0,1-11.76,2.4,22.89,22.89,0,0,1-15.07-5.16c-3.88-3.22-6.4-7.87-7.51-13.83h60.3l.09-.86q.16-1.43.24-2.78t.08-2.63a58,58,0,0,0-2.54-17.22A43.3,43.3,0,0,0,387.77,83.72ZM337,107.25a25.87,25.87,0,0,1,6.54-14.06,18.21,18.21,0,0,1,13.74-5.71,19.42,19.42,0,0,1,8,1.56,17.73,17.73,0,0,1,6,4.37,22,22,0,0,1,4,6.66,31.18,31.18,0,0,1,1.84,7.19Z"/><path class="c" d="M257.16,104a25.29,25.29,0,0,1,4.74-8,22.79,22.79,0,0,1,7.19-5.39,20.78,20.78,0,0,1,9.1-2,22.71,22.71,0,0,1,11.61,2.76,42.88,42.88,0,0,1,8.79,7l.69.71,11.36-11.69a2.72,2.72,0,0,0-.14-3.93c-3-2.68-8.61-7.42-12.28-9.28-5.27-2.66-12-4-19.87-4a42.95,42.95,0,0,0-40.47,27.07,44.92,44.92,0,0,0-3.27,17v.31a44.37,44.37,0,0,0,3.27,16.92A42.62,42.62,0,0,0,247,145.27a43.28,43.28,0,0,0,13.81,9.34,43.8,43.8,0,0,0,17.4,3.43,47.89,47.89,0,0,0,11.16-1.2,43.09,43.09,0,0,0,9.1-3.28,41.31,41.31,0,0,0,7.67-5,51.92,51.92,0,0,0,4.71-4.43l.56-.58-10.16-13.87-.71-.71-.68.68a44.53,44.53,0,0,1-9.4,7.26,24.18,24.18,0,0,1-20.89.75,23.54,23.54,0,0,1-7.5-5.48,24.6,24.6,0,0,1-4.88-8.11,28.53,28.53,0,0,1-1.74-10v-.31A27.89,27.89,0,0,1,257.16,104Z"/><path class="c" d="M833.95,83.72a36.66,36.66,0,0,0-12.66-9.94,40.31,40.31,0,0,0-17.67-3.69A39.73,39.73,0,0,0,787,73.54a40.5,40.5,0,0,0-13,9.44,43.07,43.07,0,0,0-8.55,14,47.81,47.81,0,0,0-3,17v.31a46.06,46.06,0,0,0,3.35,17.78,40.84,40.84,0,0,0,22.93,22.77,45.14,45.14,0,0,0,17,3.19c7.72,0,14.46-1.45,20-4.32,3.13-1.61,8.11-5.68,10.83-8a2.73,2.73,0,0,0,.41-3.72l-8.68-11.53-.64.62a38.78,38.78,0,0,1-9.9,7.16,26.83,26.83,0,0,1-11.76,2.4,22.89,22.89,0,0,1-15.07-5.16c-3.88-3.22-6.4-7.87-7.51-13.83h60.3l.09-.86q.16-1.43.24-2.78t.08-2.63a58,58,0,0,0-2.54-17.22A43.29,43.29,0,0,0,833.95,83.72Zm-50.77,23.53a25.87,25.87,0,0,1,6.54-14.06,18.21,18.21,0,0,1,13.74-5.71,19.42,19.42,0,0,1,8,1.56,17.73,17.73,0,0,1,6,4.37,22,22,0,0,1,4,6.66,31.16,31.16,0,0,1,1.84,7.19Z"/><path class="c" d="M764.42,71.9H739.94a2.74,2.74,0,0,0-2,.87l-32,34.19V42.71H685.13V156.27h18.09a2.73,2.73,0,0,0,2.73-2.73V132.11l10.47-10.89,24.44,35h24.21l-34.48-49.73Z"/></svg>